<?xml version="1.0" encoding="utf-8"?>
<!-- Generator: Adobe Illustrator 25.4.1, SVG Export Plug-In . SVG Version: 6.00 Build 0)  -->
<svg version="1.1" id="Layer_1" xmlns="http://www.w3.org/2000/svg" xmlns:xlink="http://www.w3.org/1999/xlink" x="0px" y="0px"
	 viewBox="0 0 89.29 23.11" style="enable-background:new 0 0 89.29 23.11;" xml:space="preserve">
<style type="text/css">
	.st0{fill:#E4183A;}
	.st1{fill:#191F36;}
	.st2{fill:#323232;}
</style>
<g>
	<g>
		<path class="st0" d="M15.57,19.65c-1.32,0.52-2.61,0.5-3.91-0.01c-0.53,0.93-1.06,1.84-1.56,2.77c-0.22,0.41-0.49,0.55-0.96,0.55
			c-2.6-0.02-5.21-0.01-7.81-0.01c-0.79,0-0.98-0.34-0.58-1.04C4.2,15.94,7.64,9.97,11.09,4C11.73,2.9,12.37,1.79,13,0.68
			c0.41-0.71,0.83-0.72,1.24-0.02c4.09,7.08,8.17,14.15,12.25,21.23c0.42,0.73,0.23,1.06-0.59,1.06c-2.63,0-5.27-0.01-7.9,0.01
			c-0.38,0-0.61-0.13-0.79-0.45C16.69,21.56,16.14,20.63,15.57,19.65 M13.21,15.56c-0.28-0.48-0.07-0.91,0.46-0.91
			c1.41-0.01,2.83-0.01,4.24,0c0.38,0,0.6,0.21,0.56,0.59c-0.05,0.5-0.09,1.01-0.23,1.49c-0.28,0.97-0.9,1.73-1.7,2.38
			c0.48,0.84,0.96,1.66,1.42,2.49c0.12,0.23,0.27,0.3,0.53,0.29c1.96-0.01,3.93-0.01,5.89-0.01h0.84
			C21.33,15.16,17.5,8.52,13.63,1.81C9.75,8.54,5.91,15.18,2.05,21.87c2.36,0,4.6,0,6.85-0.01c0.1,0,0.25-0.05,0.29-0.13
			c0.53-0.85,1.05-1.72,1.58-2.6c-0.13-0.12-0.24-0.22-0.35-0.32c-1.34-1.22-1.88-2.75-1.56-4.51c0.48-2.63,2.79-4.28,5.44-3.95
			c1.14,0.14,2.12,0.67,2.9,1.52c0.32,0.35,0.34,0.66,0.05,0.89c-0.32,0.27-0.6,0.15-0.85-0.13c-0.04-0.04-0.08-0.09-0.12-0.13
			c-1.18-1.08-2.53-1.42-4.03-0.82c-1.47,0.59-2.3,1.73-2.36,3.32c-0.07,1.63,0.69,2.83,2.15,3.55c0.96,0.48,1.96,0.5,2.99,0.09
			c0,0,0.54-0.18,0.9-0.5c0.79-0.67,1.27-1.43,1.4-2.4h-2.72H13.6C13.6,15.76,13.31,15.75,13.21,15.56"/>
	</g>
	<g>
		<path class="st1" d="M34.01,10.87v0.64c-0.49-0.5-1.16-0.8-1.94-0.8c-1.77,0-3.1,1.45-3.1,3.37s1.34,3.37,3.1,3.37
			c0.78,0,1.45-0.29,1.94-0.8v0.64h1.84v-6.44H34.01z M32.43,15.68c-0.9,0-1.56-0.68-1.56-1.59c0-0.91,0.67-1.59,1.56-1.59
			c0.91,0,1.58,0.68,1.58,1.59C34.01,15,33.34,15.68,32.43,15.68z"/>
		<path class="st1" d="M43.34,13.17v4.14h-1.84v-3.52c0-0.78-0.49-1.29-1.25-1.29c-0.78,0-1.32,0.52-1.32,1.31v3.5h-1.84v-6.44h1.84
			v0.64c0.5-0.52,1.16-0.8,1.96-0.8C42.35,10.72,43.34,11.69,43.34,13.17z"/>
		<rect x="44.45" y="10.87" class="st1" width="1.84" height="6.44"/>
		<rect x="47.5" y="8.22" class="st1" width="1.84" height="9.09"/>
		<path class="st1" d="M56.85,10.11c-0.73,0-1.33,0.43-1.51,1.09c-0.42-0.3-0.96-0.48-1.59-0.48c-1.65,0-3.07,1.2-3.28,2.78
			c-0.11,0.82,0.11,1.54,0.61,2.04c-0.5,0.25-0.88,0.78-0.96,1.35c-0.11,0.85,0.48,1.41,1.48,1.41h2.54c0.85,0,1.36,0.43,1.29,1.07
			l0.77-0.18c0.06-1-0.67-1.62-1.84-1.62h-2.52c-0.63,0-1.01-0.34-0.93-0.87c0.04-0.34,0.28-0.68,0.61-0.85
			c0.4,0.25,0.91,0.39,1.48,0.39c1.64,0,3.05-1.19,3.27-2.76c0.1-0.72-0.06-1.36-0.43-1.84v-0.03c0.08-0.5,0.48-0.83,1-0.83h0.43
			l0.1-0.68H56.85z M55.48,13.5c-0.16,1.17-1.21,2.07-2.42,2.07s-1.99-0.9-1.83-2.07c0.16-1.19,1.2-2.08,2.42-2.08
			C54.86,11.41,55.64,12.31,55.48,13.5z"/>
		<path class="st1" d="M57.46,14.77l0.56-3.9h0.73l-0.54,3.8c-0.16,1.25,0.56,2.08,1.83,2.08c1.27,0,2.23-0.83,2.41-2.08l0.53-3.8
			h0.73l-0.54,3.9c-0.23,1.62-1.51,2.69-3.23,2.69S57.23,16.39,57.46,14.77z"/>
		<path class="st1" d="M59.3,9.32c0.04-0.29,0.3-0.5,0.59-0.5c0.28,0,0.47,0.21,0.43,0.5c-0.04,0.29-0.29,0.5-0.58,0.5
			C59.45,9.82,59.26,9.61,59.3,9.32z"/>
		<path class="st1" d="M61.84,9.32c0.04-0.29,0.3-0.5,0.59-0.5c0.28,0,0.47,0.21,0.43,0.5c-0.04,0.29-0.29,0.5-0.58,0.5
			C61.99,9.82,61.8,9.61,61.84,9.32z"/>
		<path class="st1" d="M75.18,13.17l-0.58,4.14h-0.73l0.56-3.94c0.16-1.17-0.48-1.94-1.65-1.94c-1.15,0-2.04,0.71-2.28,1.79
			l-0.57,4.09h-0.73l0.56-3.94c0.15-1.17-0.49-1.94-1.65-1.94c-1.21,0-2.15,0.78-2.31,1.97l-0.56,3.91h-0.73l0.91-6.44h0.73
			l-0.15,1.06c0.56-0.77,1.41-1.21,2.42-1.21c1.09,0,1.83,0.53,2.06,1.4c0.56-0.88,1.49-1.4,2.61-1.4
			C74.56,10.72,75.39,11.69,75.18,13.17z"/>
		<path class="st1" d="M76.55,14.77l0.56-3.9h0.73l-0.54,3.8c-0.16,1.25,0.56,2.08,1.83,2.08c1.27,0,2.23-0.83,2.41-2.08l0.53-3.8
			h0.73l-0.54,3.9c-0.23,1.62-1.51,2.69-3.23,2.69S76.32,16.39,76.55,14.77z"/>
		<path class="st1" d="M78.39,9.32c0.04-0.29,0.3-0.5,0.59-0.5c0.28,0,0.47,0.21,0.43,0.5c-0.04,0.29-0.29,0.5-0.58,0.5
			C78.55,9.82,78.36,9.61,78.39,9.32z"/>
		<path class="st1" d="M80.93,9.32c0.04-0.29,0.3-0.5,0.59-0.5c0.28,0,0.47,0.21,0.43,0.5c-0.04,0.29-0.29,0.5-0.58,0.5
			C81.08,9.82,80.89,9.61,80.93,9.32z"/>
		<path class="st1" d="M88.39,15.55c-0.16,1.12-1.22,1.82-2.52,1.89l-0.32,0.35c0.06-0.01,0.13-0.03,0.19-0.03
			c0.61,0,1.01,0.49,0.91,1.12c-0.09,0.63-0.67,1.14-1.35,1.14c-0.47,0-0.85-0.25-1.01-0.62l0.35-0.32c0.11,0.3,0.38,0.49,0.71,0.49
			c0.4,0,0.76-0.3,0.81-0.69c0.08-0.4-0.19-0.69-0.58-0.69c-0.18,0-0.38,0.08-0.5,0.19l-0.4-0.2l0.67-0.74
			c-0.96-0.06-1.68-0.47-2.12-1.01l0.49-0.53c0.4,0.54,1.1,0.88,1.98,0.88c1,0,1.83-0.45,1.93-1.16c0.11-0.78-0.71-1.01-1.62-1.24
			c-1.03-0.28-2.21-0.59-2.02-1.87c0.16-1.17,1.35-1.8,2.61-1.8c0.97,0,1.69,0.38,2.15,0.9l-0.49,0.54
			c-0.37-0.47-0.97-0.77-1.74-0.77c-0.9,0-1.67,0.42-1.77,1.09c-0.11,0.8,0.72,1.02,1.64,1.25C87.42,13.99,88.57,14.29,88.39,15.55z
			"/>
	</g>
</g>
</svg>
