<?xml version="1.0" encoding="utf-8"?>
<!-- Generator: Adobe Illustrator 25.4.1, SVG Export Plug-In . SVG Version: 6.00 Build 0)  -->
<svg version="1.1" id="Layer_1" xmlns="http://www.w3.org/2000/svg" xmlns:xlink="http://www.w3.org/1999/xlink" x="0px" y="0px"
	 viewBox="0 0 89.29 23.11" style="enable-background:new 0 0 89.29 23.11;" xml:space="preserve">
<style type="text/css">
	.st0{fill:#E4183A;}
	.st1{fill:#191F36;}
	.st2{fill:#323232;}
</style>
<g>
	<g>
		<g>
			<path class="st2" d="M15.68,19.62c-1.31,0.52-2.6,0.5-3.9-0.01c-0.53,0.93-1.06,1.84-1.55,2.76c-0.22,0.41-0.49,0.55-0.95,0.55
				c-2.59-0.02-5.19-0.01-7.79-0.01c-0.78,0-0.98-0.34-0.58-1.04c3.43-5.95,6.87-11.9,10.3-17.85c0.64-1.1,1.27-2.21,1.91-3.31
				C13.53,0.01,13.95,0,14.35,0.7c4.07,7.05,8.14,14.1,12.21,21.15c0.42,0.73,0.23,1.06-0.59,1.06c-2.62,0-5.25-0.01-7.87,0.01
				c-0.38,0-0.6-0.13-0.78-0.45C16.79,21.53,16.24,20.6,15.68,19.62 M13.32,15.54c-0.28-0.48-0.07-0.9,0.45-0.91
				c1.41-0.01,2.82-0.01,4.22,0c0.38,0,0.59,0.21,0.56,0.59c-0.05,0.5-0.09,1-0.23,1.48c-0.28,0.97-0.89,1.72-1.69,2.37
				c0.48,0.84,0.96,1.65,1.42,2.48c0.12,0.22,0.27,0.3,0.52,0.29c1.96-0.01,3.91-0.01,5.87-0.01h0.83
				C21.42,15.15,17.6,8.53,13.74,1.85C9.87,8.55,6.05,15.16,2.2,21.84c2.35,0,4.58,0,6.82-0.01c0.1,0,0.25-0.05,0.29-0.13
				c0.53-0.85,1.04-1.71,1.57-2.59c-0.13-0.12-0.24-0.22-0.35-0.31c-1.33-1.22-1.88-2.74-1.56-4.49c0.48-2.62,2.78-4.27,5.43-3.94
				c1.14,0.14,2.11,0.66,2.89,1.52c0.32,0.35,0.34,0.65,0.05,0.89c-0.32,0.27-0.6,0.15-0.85-0.13c-0.04-0.04-0.08-0.09-0.12-0.13
				c-1.18-1.08-2.52-1.42-4.02-0.82c-1.47,0.59-2.29,1.73-2.36,3.31c-0.07,1.62,0.69,2.82,2.14,3.54c0.96,0.48,1.95,0.49,2.98,0.08
				c0,0,0.54-0.18,0.89-0.5c0.79-0.66,1.26-1.42,1.4-2.39h-2.71h-1C13.72,15.74,13.42,15.74,13.32,15.54"/>
		</g>
		<g>
			<path class="st2" d="M34.05,10.87v0.64c-0.49-0.5-1.16-0.79-1.94-0.79c-1.76,0-3.09,1.45-3.09,3.36s1.33,3.36,3.09,3.36
				c0.78,0,1.45-0.29,1.94-0.79v0.64h1.84v-6.41H34.05z M32.48,15.66c-0.89,0-1.56-0.68-1.56-1.58s0.67-1.58,1.56-1.58
				c0.91,0,1.57,0.68,1.57,1.58S33.38,15.66,32.48,15.66z"/>
			<path class="st2" d="M43.34,13.16v4.12H41.5v-3.51c0-0.78-0.49-1.28-1.24-1.28c-0.78,0-1.32,0.52-1.32,1.31v3.48H37.1v-6.41h1.84
				v0.64c0.5-0.52,1.16-0.79,1.95-0.79C42.36,10.72,43.34,11.69,43.34,13.16z"/>
			<rect x="44.45" y="10.87" class="st2" width="1.84" height="6.41"/>
			<rect x="47.49" y="8.23" class="st2" width="1.84" height="9.05"/>
			<path class="st2" d="M56.81,10.12c-0.73,0-1.32,0.43-1.51,1.08c-0.41-0.3-0.96-0.48-1.58-0.48c-1.65,0-3.06,1.19-3.27,2.77
				c-0.11,0.82,0.11,1.53,0.6,2.04c-0.5,0.25-0.88,0.78-0.96,1.35c-0.11,0.84,0.48,1.41,1.47,1.41h2.53c0.84,0,1.36,0.43,1.28,1.07
				l0.77-0.18c0.06-0.99-0.67-1.61-1.84-1.61h-2.51c-0.63,0-1.01-0.34-0.93-0.87c0.04-0.34,0.28-0.68,0.6-0.84
				c0.4,0.25,0.91,0.39,1.47,0.39c1.63,0,3.04-1.18,3.26-2.75c0.1-0.72-0.06-1.36-0.43-1.84v-0.03c0.08-0.5,0.48-0.83,0.99-0.83
				h0.43l0.1-0.68H56.81z M55.44,13.49c-0.16,1.17-1.21,2.06-2.41,2.06c-1.21,0-1.99-0.89-1.82-2.06c0.16-1.18,1.19-2.07,2.41-2.07
				C54.82,11.41,55.6,12.31,55.44,13.49z"/>
			<path class="st2" d="M57.41,14.76l0.55-3.89h0.73l-0.54,3.78c-0.16,1.24,0.55,2.07,1.82,2.07c1.27,0,2.23-0.83,2.4-2.07
				l0.53-3.78h0.73l-0.54,3.89c-0.23,1.61-1.51,2.68-3.22,2.68S57.19,16.37,57.41,14.76z"/>
			<path class="st2" d="M59.25,9.33c0.04-0.29,0.3-0.5,0.59-0.5c0.28,0,0.47,0.21,0.43,0.5c-0.04,0.29-0.29,0.5-0.58,0.5
				C59.4,9.83,59.21,9.62,59.25,9.33z"/>
			<path class="st2" d="M61.77,9.33c0.04-0.29,0.3-0.5,0.59-0.5c0.28,0,0.47,0.21,0.43,0.5c-0.04,0.29-0.29,0.5-0.58,0.5
				S61.74,9.62,61.77,9.33z"/>
			<path class="st2" d="M75.07,13.16l-0.58,4.12h-0.73l0.55-3.92c0.16-1.17-0.48-1.94-1.65-1.94c-1.14,0-2.04,0.7-2.28,1.79
				l-0.57,4.07h-0.73l0.55-3.92c0.15-1.17-0.49-1.94-1.65-1.94c-1.21,0-2.14,0.78-2.3,1.96l-0.55,3.9h-0.73l0.91-6.41h0.73
				l-0.15,1.06c0.55-0.77,1.41-1.21,2.41-1.21c1.08,0,1.82,0.53,2.05,1.4c0.55-0.88,1.48-1.4,2.6-1.4
				C74.45,10.72,75.28,11.69,75.07,13.16z"/>
			<path class="st2" d="M76.44,14.76l0.55-3.89h0.73l-0.54,3.78c-0.16,1.24,0.55,2.07,1.82,2.07c1.27,0,2.23-0.83,2.4-2.07
				l0.53-3.78h0.73l-0.54,3.89c-0.23,1.61-1.51,2.68-3.22,2.68C77.19,17.44,76.21,16.37,76.44,14.76z"/>
			<path class="st2" d="M78.27,9.33c0.04-0.29,0.3-0.5,0.59-0.5c0.28,0,0.47,0.21,0.43,0.5c-0.04,0.29-0.29,0.5-0.58,0.5
				C78.42,9.83,78.23,9.62,78.27,9.33z"/>
			<path class="st2" d="M80.8,9.33c0.04-0.29,0.3-0.5,0.59-0.5c0.28,0,0.47,0.21,0.43,0.5c-0.04,0.29-0.29,0.5-0.58,0.5
				C80.95,9.83,80.76,9.62,80.8,9.33z"/>
			<path class="st2" d="M88.23,15.54c-0.16,1.12-1.22,1.81-2.51,1.89l-0.31,0.35c0.06-0.01,0.13-0.03,0.19-0.03
				c0.6,0,1.01,0.49,0.91,1.12C86.41,19.5,85.83,20,85.15,20c-0.47,0-0.84-0.25-1.01-0.62l0.35-0.31c0.11,0.3,0.38,0.49,0.7,0.49
				c0.4,0,0.75-0.3,0.8-0.69c0.08-0.4-0.19-0.69-0.58-0.69c-0.18,0-0.38,0.08-0.5,0.19l-0.4-0.2l0.67-0.74
				c-0.96-0.06-1.67-0.47-2.11-1.01l0.49-0.53c0.4,0.54,1.09,0.88,1.97,0.88c0.99,0,1.82-0.45,1.92-1.16
				c0.11-0.78-0.7-1.01-1.61-1.23c-1.03-0.28-2.2-0.59-2.01-1.86c0.16-1.17,1.35-1.8,2.6-1.8c0.97,0,1.68,0.38,2.14,0.89l-0.49,0.54
				c-0.36-0.47-0.97-0.77-1.74-0.77c-0.89,0-1.66,0.41-1.76,1.08c-0.11,0.79,0.72,1.02,1.63,1.24
				C87.26,13.98,88.41,14.28,88.23,15.54z"/>
		</g>
	</g>
</g>
</svg>
