<?xml version="1.0" encoding="utf-8"?>
<!-- Generator: Adobe Illustrator 25.4.1, SVG Export Plug-In . SVG Version: 6.00 Build 0)  -->
<svg version="1.1" id="Layer_1" xmlns="http://www.w3.org/2000/svg" xmlns:xlink="http://www.w3.org/1999/xlink" x="0px" y="0px"
	 viewBox="0 0 1085.5 271.98" style="enable-background:new 0 0 1085.5 271.98;" xml:space="preserve">
<style type="text/css">
	.st0{fill:#020203;}
</style>
<g>
	<polygon class="st0" points="1032.11,166.01 1032.11,40.4 1078.41,40.4 1078.41,9.55 953.55,9.55 953.55,40.4 999.86,40.4 
		999.86,166.01 	"/>
	<polygon class="st0" points="892.76,166.01 925.01,166.01 925.01,9.55 892.76,9.55 892.76,69.46 826.65,69.46 826.65,9.55 
		794.39,9.55 794.39,166.01 826.65,166.01 826.65,100.3 892.76,100.3 	"/>
	<g>
		<path class="st0" d="M698.82,38.16c13.82,0,24.11,6.78,30.87,20.35l30.63-12.31c-11.5-26.07-31.85-39.11-61.03-39.11
			c-22.44,0-40.24,8.21-53.46,24.6c-12.12,15.04-18.2,33.75-18.2,56.1c0,22.8,5.76,41.58,17.28,56.32
			c12.6,16.25,30.35,24.36,53.22,24.36c19.65,0,35.33-5.72,47-17.21c11.82-11.47,17.73-26.75,17.73-45.82V84.89h-57.83v29.27h25.58
			c-2.15,15.79-12.67,23.7-31.57,23.7c-12.89,0-22.72-5.44-29.48-16.32c-5.84-9.25-8.75-20.48-8.75-33.75
			c0-13.4,2.84-24.59,8.51-33.53C675.93,43.53,685.75,38.16,698.82,38.16"/>
	</g>
	<rect x="562.13" y="40.32" class="st0" width="32.24" height="125.71"/>
	<polygon class="st0" points="538.35,135.16 538.35,166.02 425.25,166.02 425.25,9.55 457.5,9.55 457.5,135.16 	"/>
	<g>
		<path class="st0" d="M262.02,105.22c20.58-7.9,30.87-23.25,30.87-46.05c0-15.79-5.31-28.08-15.89-36.88
			c-9.99-8.51-23.21-12.74-39.64-12.74h-75.09v156.47h32.24v-56.34h32.49l28.8,56.34h37.09L262.02,105.22z M236.68,80.19h-42.17
			V39.96h42.17c15.36,0,23.04,6.63,23.04,19.9C259.73,73.41,252.04,80.19,236.68,80.19"/>
		<path class="st0" d="M57.53,9.55H7.09v156.47h48.15c24.86,0,44.84-7.01,59.88-21.01c15.06-14,22.59-33.09,22.59-57.22
			c0-25.64-6.83-45.09-20.5-58.34C103.69,16.18,83.8,9.55,57.53,9.55 M91.63,123.33c-8.45,8.19-20.58,12.29-36.39,12.29H39.33V39.95
			h17.06c16.74,0,28.95,3.95,36.63,11.84c7.66,7.75,11.5,19.74,11.5,35.99C104.52,103.13,100.23,114.97,91.63,123.33"/>
		<path class="st0" d="M425.25,114.48l-94.97,51.5c-2.56,1.29-5.35,1.94-8.38,1.94c-5,0-9.35-1.79-13.04-5.37
			c-3.72-3.6-5.56-7.8-5.56-12.67c0-4.88,1.85-9.09,5.56-12.67c1.63-1.62,3.42-2.86,5.34-3.75l111.04-46.13l32.24-13.38L612.47,9.55
			h6.29L457.5,97L425.25,114.48z"/>
	</g>
	<polygon class="st0" points="477.44,264.43 463.7,264.43 463.7,237.66 455.77,251.47 446.98,251.47 439.05,237.66 439.05,264.43 
		425.31,264.43 425.31,208.54 438.82,208.54 451.38,233.19 463.94,208.54 477.44,208.54 	"/>
	<path class="st0" d="M514.1,244.65l-4.71-14.91l-5.02,14.91H514.1z M534.66,264.43H520.3l-2.59-8.32h-17.19l-2.75,8.32H483.4
		l20.33-55.89h10.6L534.66,264.43z"/>
	<g>
		<path class="st0" d="M578.23,247.31c0,5.7-2.25,10.15-6.75,13.34c-3.98,2.83-8.92,4.24-14.84,4.24c-9.37,0-16.43-2.46-21.2-7.38
			l8.79-8.79c2.62,2.62,6.78,3.93,12.48,3.93c5.33,0,8-1.67,8-5.02c0-2.72-1.6-4.32-4.79-4.79l-6.75-0.94
			c-10.05-1.41-15.07-6.8-15.07-16.17c0-5.6,2.04-10.02,6.12-13.27c3.77-2.93,8.53-4.4,14.29-4.4c8.11,0,14.39,2.22,18.84,6.67
			l-8.63,8.64c-2.2-2.25-5.73-3.38-10.6-3.38c-1.83,0-3.35,0.4-4.56,1.19c-1.46,0.95-2.2,2.29-2.2,4.03c0,2.37,1.65,3.8,4.95,4.27
			l6.75,0.95C573.18,231.85,578.23,237.48,578.23,247.31"/>
	</g>
	<polygon class="st0" points="625.41,220.78 611.67,220.78 611.67,264.43 597.93,264.43 597.93,220.78 584.2,220.78 584.2,208.54 
		625.41,208.54 	"/>
	<polygon class="st0" points="671.72,264.43 633.73,264.43 633.73,208.54 671.72,208.54 671.72,220.78 647.46,220.78 647.46,230.12 
		668.19,230.12 668.19,242.37 647.46,242.37 647.46,252.18 671.72,252.18 	"/>
	<g>
		<path class="st0" d="M709.24,226.51c0-1.62-0.58-2.97-1.73-4.04c-1.15-1.07-2.56-1.61-4.24-1.61h-7.77v11.3h7.77
			c1.67,0,3.09-0.53,4.24-1.61C708.66,229.48,709.24,228.14,709.24,226.51 M725.96,264.43h-15.93l-9.89-20.8h-4.63v20.8h-13.74
			v-55.89h22.14c5.44,0,9.99,1.65,13.62,4.95c3.64,3.3,5.45,7.64,5.45,13.03c0,6.7-3.04,11.56-9.11,14.6L725.96,264.43z"/>
		<path class="st0" d="M783.11,236.48c0-4.55-0.08-7.59-0.23-9.11c-0.84-7.8-4.63-11.7-11.38-11.7s-10.55,3.9-11.38,11.7
			c-0.16,1.52-0.23,4.56-0.23,9.11s0.08,7.59,0.23,9.11c0.84,7.8,4.63,11.7,11.38,11.7s10.54-3.9,11.38-11.7
			C783.03,244.07,783.11,241.03,783.11,236.48 M791.58,236.48c0,6.44-0.21,10.83-0.63,13.19c-0.63,3.66-2.2,6.75-4.71,9.26
			c-3.97,3.98-8.9,5.97-14.76,5.97c-5.81,0-10.7-1.99-14.68-5.97c-2.51-2.51-4.11-5.6-4.79-9.26c-0.42-2.25-0.62-6.65-0.62-13.19
			s0.21-10.94,0.62-13.19c0.68-3.66,2.28-6.75,4.79-9.26c3.98-3.98,8.87-5.97,14.68-5.97c5.86,0,10.78,1.99,14.76,5.97
			c2.51,2.51,4.08,5.6,4.71,9.26C791.37,225.65,791.58,230.05,791.58,236.48"/>
	</g>
	<polygon class="st0" points="840.17,216.15 812.93,216.15 812.93,233.19 836.17,233.19 836.17,240.8 812.93,240.8 812.93,264.43 
		804.46,264.43 804.46,208.54 840.17,208.54 	"/>
	<polygon class="st0" points="870.55,208.53 874.79,208.53 874.79,260.66 904.46,260.66 904.46,264.43 870.55,264.43 	"/>
	<rect x="917.1" y="208.53" class="st0" width="4.24" height="55.89"/>
	<g>
		<path class="st0" d="M972.13,258.46c-3.69,4.08-9.03,6.44-14.68,6.44c-5.34,0-10.28-2.04-13.97-5.73
			c-5.1-5.1-5.18-10.13-5.18-22.69c0-12.64,0.08-17.58,5.18-22.69c3.69-3.69,8.63-5.73,13.97-5.73c9.73,0,17.43,6.52,19.08,16.33
			h-4.24c-1.65-7.77-7.3-12.56-14.84-12.56c-4,0-7.77,1.49-10.6,4.32c-4,4.01-4.32,8.4-4.32,20.33s0.31,16.33,4.32,20.33
			c2.83,2.82,6.6,4.32,10.6,4.32c4.4,0,8.71-1.89,11.62-5.42c2.43-3.06,3.38-6.28,3.38-11.07v-5.02h-14.99v-3.77h19.23v9.11
			C976.68,250.85,975.5,254.93,972.13,258.46"/>
	</g>
	<polygon class="st0" points="1025.27,238.13 996.15,238.13 996.15,264.43 991.91,264.43 991.91,208.53 996.15,208.53 
		996.15,234.36 1025.27,234.36 1025.27,208.53 1029.51,208.53 1029.51,264.43 1025.27,264.43 	"/>
	<polygon class="st0" points="1061.69,264.43 1057.45,264.43 1057.45,212.3 1040.81,212.3 1040.81,208.54 1078.41,208.54 
		1078.41,212.3 1061.69,212.3 	"/>
</g>
</svg>
