<?xml version="1.0" encoding="utf-8"?>
<!-- Generator: Adobe Illustrator 25.4.1, SVG Export Plug-In . SVG Version: 6.00 Build 0)  -->
<svg version="1.1" id="Layer_1" xmlns="http://www.w3.org/2000/svg" xmlns:xlink="http://www.w3.org/1999/xlink" x="0px" y="0px"
	 viewBox="0 0 15.87 15.87" style="enable-background:new 0 0 15.87 15.87;" xml:space="preserve">
<style type="text/css">
	.st0{fill:#323232;}
	.st1{fill-rule:evenodd;clip-rule:evenodd;fill:#323232;}
</style>
<g>
	<path class="st0" d="M12.05,2.94c-0.5,0-0.91,0.41-0.91,0.91c0,0.5,0.41,0.91,0.91,0.91c0.5,0,0.91-0.41,0.91-0.91
		C12.96,3.35,12.55,2.94,12.05,2.94L12.05,2.94z"/>
	<path class="st0" d="M8,10.39c-1.35,0-2.45-1.1-2.45-2.45c0-1.35,1.1-2.45,2.45-2.45c1.35,0,2.45,1.1,2.45,2.45
		C10.45,9.29,9.35,10.39,8,10.39L8,10.39z M8,4.11c-2.11,0-3.82,1.72-3.82,3.82S5.89,11.76,8,11.76s3.82-1.72,3.82-3.82
		S10.11,4.11,8,4.11L8,4.11z"/>
	<path class="st0" d="M4.84,1.63c-1.77,0-3.2,1.44-3.2,3.2v6.2c0,1.77,1.44,3.2,3.2,3.2h6.2c1.77,0,3.2-1.44,3.2-3.2v-6.2
		c0-1.77-1.44-3.2-3.2-3.2H4.84L4.84,1.63z M11.04,15.7h-6.2c-2.57,0-4.67-2.09-4.67-4.66v-6.2c0-2.57,2.09-4.66,4.67-4.66h6.2
		c2.57,0,4.66,2.09,4.66,4.66v6.2C15.7,13.61,13.61,15.7,11.04,15.7L11.04,15.7z"/>
</g>
</svg>
