<?xml version="1.0" encoding="utf-8"?>
<!-- Generator: Adobe Illustrator 25.4.1, SVG Export Plug-In . SVG Version: 6.00 Build 0)  -->
<svg version="1.1" id="Layer_1" xmlns="http://www.w3.org/2000/svg" xmlns:xlink="http://www.w3.org/1999/xlink" x="0px" y="0px"
	 viewBox="0 0 14.21 14.17" style="enable-background:new 0 0 14.21 14.17;" xml:space="preserve">
<style type="text/css">
	.st0{fill:#323232;}
	.st1{fill-rule:evenodd;clip-rule:evenodd;fill:#323232;}
</style>
<g>
	<path class="st0" d="M1.92,0.28c0.9,0,1.64,0.73,1.64,1.64c0,0.9-0.73,1.64-1.64,1.64c-0.91,0-1.64-0.74-1.64-1.64
		C0.28,1.01,1.01,0.28,1.92,0.28 M0.5,4.8h2.83v9.1H0.5V4.8L0.5,4.8z"/>
	<path class="st0" d="M5.11,4.8h2.71v1.24h0.04c0.38-0.72,1.3-1.47,2.68-1.47c2.86,0,3.39,1.88,3.39,4.33v4.99H11.1V9.47
		c0-1.05-0.02-2.41-1.47-2.41c-1.47,0-1.7,1.15-1.7,2.34v4.5H5.11V4.8L5.11,4.8z"/>
</g>
</svg>
