<?xml version="1.0" encoding="utf-8"?>
<!-- Generator: Adobe Illustrator 25.4.1, SVG Export Plug-In . SVG Version: 6.00 Build 0)  -->
<svg version="1.1" id="Layer_1" xmlns="http://www.w3.org/2000/svg" xmlns:xlink="http://www.w3.org/1999/xlink" x="0px" y="0px"
	 viewBox="0 0 14.17 18.3" style="enable-background:new 0 0 14.17 18.3;" xml:space="preserve">
<style type="text/css">
	.st0{fill:#FFFFFF;}
	.st1{fill-rule:evenodd;clip-rule:evenodd;fill:#FFFFFF;}
</style>
<g>
	<path class="st1" d="M5.96,11.85l-0.04,0.14c-0.65,2.55-0.72,3.12-1.39,4.31c-0.32,0.56-0.68,1.1-1.08,1.61l-0.18,0.11
		c-0.1-0.02-0.11-0.11-0.12-0.19c-0.11-0.77-0.17-1.55-0.14-2.34c0.03-1.02,0.16-1.37,1.48-6.9L4.46,8.36
		c-0.31-0.85-0.38-1.71-0.1-2.59c0.6-1.89,2.74-2.03,3.11-0.47C7.7,6.27,7.09,7.53,6.62,9.39c-0.39,1.54,1.42,2.63,2.97,1.51
		c1.43-1.03,1.98-3.51,1.87-5.27c-0.21-3.5-4.05-4.26-6.49-3.13c-2.8,1.29-3.43,4.76-2.17,6.34c0.16,0.2,0.28,0.32,0.23,0.53
		C2.96,9.68,2.89,10,2.8,10.31c-0.06,0.23-0.26,0.32-0.5,0.22c-0.47-0.19-0.85-0.48-1.17-0.87C0.06,8.33-0.25,5.71,1.17,3.49
		c1.57-2.46,4.49-3.46,7.15-3.16c3.18,0.36,5.2,2.54,5.57,5.01c0.17,1.12,0.05,3.9-1.53,5.86c-1.82,2.25-4.76,2.4-6.11,1.02
		C6.15,12.11,6.06,11.98,5.96,11.85L5.96,11.85z"/>
</g>
</svg>
