<?xml version="1.0" encoding="utf-8"?>
<!-- Generator: Adobe Illustrator 25.4.1, SVG Export Plug-In . SVG Version: 6.00 Build 0)  -->
<svg version="1.1" id="Layer_1" xmlns="http://www.w3.org/2000/svg" xmlns:xlink="http://www.w3.org/1999/xlink" x="0px" y="0px"
	 viewBox="0 0 16.44 11.51" style="enable-background:new 0 0 16.44 11.51;" xml:space="preserve">
<style type="text/css">
	.st0{fill:#323232;}
	.st1{fill-rule:evenodd;clip-rule:evenodd;fill:#323232;}
</style>
<g>
	<path class="st0" d="M10.94,6.07L6.91,8.06C6.76,8.14,6.22,8.03,6.22,7.85V3.76c0-0.18,0.54-0.3,0.7-0.21l3.85,2.1
		C10.93,5.75,11.1,5.98,10.94,6.07L10.94,6.07z M16.22,3.67c0-1.94-1.57-3.51-3.51-3.51H3.73c-1.94,0-3.51,1.57-3.51,3.51v4.18
		c0,1.94,1.57,3.51,3.51,3.51h8.98c1.94,0,3.51-1.57,3.51-3.51V3.67L16.22,3.67z"/>
</g>
</svg>
